<svg id="ef6c975f-d645-4760-8bd8-b97def79c882" data-name="root" xmlns="http://www.w3.org/2000/svg"
     xmlns:xlink="http://www.w3.org/1999/xlink" viewBox="0 0 100 68.83">
    <defs>
        <linearGradient id="fa43095a-4966-4eaf-bc23-0e361ab9242c" x1="-142.44" y1="533.46" x2="-141.44" y2="533.46"
                        gradientTransform="matrix(100, 0, 0, -13.69, 14355.01, 7511.24)" gradientUnits="userSpaceOnUse">
            <stop offset="0" stop-color="#6af0ff"/>
            <stop offset="1" stop-color="#00aeef"/>
        </linearGradient>
        <linearGradient id="aa0fb278-cf91-44f8-8090-9c8b61b5a78b" x1="128.2" y1="166.63" x2="194" y2="166.63"
                        gradientUnits="userSpaceOnUse">
            <stop offset="0" stop-color="#fff"/>
            <stop offset="0" stop-color="#ededed"/>
        </linearGradient>
        <linearGradient id="a4bc13cf-1e23-45e1-b56d-6933a614285e" x1="139.73" y1="170.95" x2="179.15" y2="164.49"
                        gradientTransform="matrix(1, 0, 0, 1, 0, 0)"
                        xlink:href="#fa43095a-4966-4eaf-bc23-0e361ab9242c"/>
        <linearGradient id="a5e4745e-a94a-4158-89ed-ee7756c7c25d" x1="140.55" y1="153.34" x2="153" y2="153.34"
                        gradientUnits="userSpaceOnUse">
            <stop offset="0" stop-color="#fff"/>
            <stop offset="1" stop-color="#e1ffff"/>
        </linearGradient>
    </defs>
    <g id="babf02a8-914f-4b97-b44e-a032baecf93e">
        <path d="M116.88,205.26l-.8.84a2.89,2.89,0,0,0-2-1,1.5,1.5,0,0,0-1,.4,1.25,1.25,0,0,0-.44.95,1.32,1.32,0,0,0,.37.88,4.51,4.51,0,0,0,1.49,1,5.46,5.46,0,0,1,1.89,1.39,2.56,2.56,0,0,1,.49,1.53,2.71,2.71,0,0,1-.84,2,2.84,2.84,0,0,1-2.09.83,3.7,3.7,0,0,1-1.6-.36,3.36,3.36,0,0,1-1.26-1l.78-.9a2.74,2.74,0,0,0,2,1.08,1.83,1.83,0,0,0,1.27-.48,1.48,1.48,0,0,0,.52-1.13,1.46,1.46,0,0,0-.34-.95,5.41,5.41,0,0,0-1.57-1A4.87,4.87,0,0,1,112,208a2.44,2.44,0,0,1-.48-1.5,2.4,2.4,0,0,1,.76-1.83,2.59,2.59,0,0,1,1.89-.73,4,4,0,0,1,2.7,1.3Zm16.54-4.57h1.25v13.44h-1.25Zm18.79-.24a1,1,0,0,1,.73.3,1,1,0,1,1-1.45,1.45,1,1,0,0,1,.72-1.75Zm-.61,4h1.24v9.7H151.6Zm18.34,5.94v-1.54a5.69,5.69,0,0,1,.83-2.9,4,4,0,0,1,1.46-1.34,3.2,3.2,0,0,1,1.68-.4,4.14,4.14,0,0,1,1.44.26,2.77,2.77,0,0,1,1.12.71,5.54,5.54,0,0,1,.8,1.32,3.55,3.55,0,0,1,1.82-1.9,5.13,5.13,0,0,1,1.73-.39,3.94,3.94,0,0,1,1.93.5,2.82,2.82,0,0,1,1.31,1.42,7.59,7.59,0,0,1,.37,2.73v5.29h-1.27v-5.29a6.85,6.85,0,0,0-.22-2.14,1.9,1.9,0,0,0-.76-.94,2.28,2.28,0,0,0-1.3-.36,3.29,3.29,0,0,0-2.45,1.39,5.64,5.64,0,0,0-.6,2.43v4.91h-1.25v-5a5,5,0,0,0-.39-2.38,3.33,3.33,0,0,0-.92-1,2.31,2.31,0,0,0-1.35-.37,2.48,2.48,0,0,0-1.49.44,2.82,2.82,0,0,0-1,1.32,7.63,7.63,0,0,0-.29,2.86v4.11h-1.23v-3.76Zm39.8.31,1,.56a5.67,5.67,0,0,1-1.18,1.64,5.06,5.06,0,0,1-1.53.94,5.52,5.52,0,0,1-1.92.32,4.65,4.65,0,0,1-3.71-1.55,5.31,5.31,0,0,1-.2-6.79,4.63,4.63,0,0,1,3.85-1.84,4.77,4.77,0,0,1,3.95,1.88,5.23,5.23,0,0,1,1.06,3.31h-8.71a4,4,0,0,0,1.08,2.77A3.41,3.41,0,0,0,206,213a4.13,4.13,0,0,0,1.44-.26,4,4,0,0,0,1.19-.69,5.79,5.79,0,0,0,1.07-1.38Zm0-2.6a4.17,4.17,0,0,0-.73-1.6,3.41,3.41,0,0,0-1.26-1,3.82,3.82,0,0,0-1.65-.37,3.55,3.55,0,0,0-2.45.92,4.22,4.22,0,0,0-1.13,2Z"
              transform="translate(-111.1 -145.31)" style="fill:url(#fa43095a-4966-4eaf-bc23-0e361ab9242c)"/>
    </g>
    <path d="M161.4,145.31c13.69.1,28.22,7.06,31.82,20.37a25.46,25.46,0,0,1,.3,11.17,11.1,11.1,0,0,1-3.42,6.55c-3.73,3.2-9.2,3.65-14.39,4a185,185,0,0,1-28.83-.07c-6.26-.54-13.07-1.51-16.32-6.71-4.17-6.67-2.27-15.61,1.51-21.38C138.33,149.73,150.61,145.28,161.4,145.31Z"
          transform="translate(-111.1 -145.31)" style="fill:url(#aa0fb278-cf91-44f8-8090-9c8b61b5a78b)"/>
    <path d="M161,146.81c-12.55.09-25.65,6-29.88,17.67a21.68,21.68,0,0,0-1,9.94,11.41,11.41,0,0,0,3.57,7.56c2.59,2.16,6.08,2.94,9.57,3.46a119,119,0,0,0,16.79.87c7.51,0,15.12.24,22.38-1.24,3.15-.64,6.39-1.72,8.17-4.5s1.84-6.31,1.84-9.51a19.94,19.94,0,0,0-2.8-10c-4.6-7.81-13.46-12.32-22.12-13.71A40.86,40.86,0,0,0,161,146.81Z"
          transform="translate(-111.1 -145.31)" style="fill:url(#a4bc13cf-1e23-45e1-b56d-6933a614285e)"/>
    <path d="M141.67,152.5l-.33.41-.25.36c-.65,1-.88,2.62.27,3.49,2.11,1.58,5.57.81,8.25-.79,2.29-1.37,4.75-4.22,2.5-6C149.46,147.93,144.35,149.5,141.67,152.5Z"
          transform="translate(-111.1 -145.31)" style="fill:url(#a5e4745e-a94a-4158-89ed-ee7756c7c25d)"/>
    <rect x="166.08" y="165" width="18" height="1" rx="0.39" transform="translate(-122.22 -132.69) rotate(-4)"
          style="fill:#fff"/>
    <rect x="139.58" y="165" width="18" height="1" rx="0.39" transform="translate(174.16 195.65) rotate(-176)"
          style="fill:#fff"/>
</svg>